#!OML:ASF F:\VICON\USERDATA\INSTALL\rory3\rory3.ASF
:FULLY-SPECIFIED
:DEGREES
238
root -5.89108 18.3129 10.787 182.291 -57.5436 173.612
lowerback 10.2645 -4.52694 -7.16873
upperback 0.926255 -6.79639 2.48109
thorax -3.62377 -3.29349 7.47994
lowerneck 6.90978 -15.4646 -15.1321
upperneck 31.6878 -35.9814 14.5718
head 16.0054 -18.1234 2.60005
rclavicle 3.46382e-014 -3.18055e-014
rhumerus -43.028 -14.1096 -76.7501
rradius 26.7398
rwrist 10.9794
rhand -13.9976 3.88849
rfingers 7.12502
rthumb 12.1314 -25.7398
lclavicle 3.46382e-014 -3.18055e-014
lhumerus -24.9945 5.66749 85.3613
lradius 33.057
lwrist -2.99811
lhand -17.3283 30.0026
lfingers 7.12502
lthumb 8.91857 59.7941
rfemur -15.0304 -7.73446 27.8893
rtibia 29.3841
rfoot 2.04829 -12.9316
rtoes 13.227
lfemur 4.2456 1.02752 -17.3702
ltibia 37.5995
lfoot 13.1942 -8.10305
ltoes -8.00378
239
root -5.81015 18.2965 10.8883 182.652 -58.1217 173.278
lowerback 10.2755 -4.60597 -7.18805
upperback 0.872686 -6.90424 2.46442
thorax -3.66725 -3.34185 7.48779
lowerneck 6.99169 -15.4086 -15.0405
upperneck 31.6915 -35.843 14.5594
head 15.9369 -18.0648 2.63764
rclavicle 3.762e-014 2.38542e-015
rhumerus -43.1429 -14.1226 -76.5994
rradius 26.4527
rwrist 10.8017
rhand -14.1434 4.10426
rfingers 7.12502
rthumb 11.9908 -25.5323
lclavicle 3.762e-014 2.38542e-015
lhumerus -24.7343 5.33257 85.6521
lradius 33.2857
lwrist -3.13042
lhand -17.589 28.5897
lfingers 7.12502
lthumb 8.66699 58.3917
rfemur -15.6992 -7.79558 27.5607
rtibia 29.5943
rfoot 2.09737 -13.1512
rtoes 13.6788
lfemur 5.22838 0.758898 -17.9198
ltibia 35.4863
lfoot 11.0419 -6.79886
ltoes -12.653
240
root -5.72654 18.2754 10.9872 182.623 -58.7555 173.431
lowerback 10.2504 -4.73061 -6.96697
upperback 0.838377 -7.04147 2.52254
thorax -3.68429 -3.41128 7.43813
lowerneck 6.96072 -15.3714 -15.0212
upperneck 31.771 -35.727 14.4938
head 15.9342 -18.0099 2.6376
rclavicle 6.04305e-014 5.56597e-015
rhumerus -43.3088 -14.3073 -76.3493
rradius 26.4095
rwrist 10.9372
rhand -14.2108 4.02568
rfingers 7.12502
rthumb 11.9258 -25.6146
lclavicle 6.04305e-014 5.56597e-015
lhumerus -24.465 4.87702 85.9742
lradius 33.5588
lwrist -3.04748
lhand -18.2519 27.2622
lfingers 7.12502
lthumb 8.02727 57.0898
rfemur -16.4226 -7.80709 27.508
rtibia 29.8412
rfoot 2.0873 -13.4819
rtoes 14.5397
lfemur 6.15933 0.381396 -18.1761
ltibia 33.213
lfoot 9.7267 -5.83627
ltoes -15.6259
241
root -5.64057 18.2511 11.0893 182.778 -59.4756 173.343
lowerback 10.2917 -4.80587 -6.89008
upperback 0.799313 -7.13364 2.5878
thorax -3.73322 -3.45435 7.48057
lowerneck 7.0059 -15.4326 -15.048
upperneck 31.7785 -35.7056 14.3893
head 15.8989 -17.9995 2.61758
rclavicle -6.02318e-014 1.74931e-014
rhumerus -43.4487 -14.4677 -76.0422
rradius 26.3611
rwrist 11.0751
rhand -14.3732 4.03136
rfingers 7.12502
rthumb 11.7693 -25.618
lclavicle -6.02318e-014 1.74931e-014
lhumerus -24.1671 4.36349 86.3998
lradius 33.7826
lwrist -3.12568
lhand -18.1217 27.1387
lfingers 7.12502
lthumb 8.15284 56.9614
rfemur -17.0951 -7.77524 27.3053
rtibia 30.0828
rfoot 1.99178 -13.9568
rtoes 15.8714
lfemur 7.06269 -0.12887 -18.5165
ltibia 31.0106
lfoot 8.70644 -5.27571
ltoes -15.7655
242
root -5.55222 18.2221 11.1948 183.237 -60.2168 172.977
lowerback 10.3991 -4.80719 -6.91914
upperback 0.625183 -7.14205 2.6545
thorax -3.96308 -3.43803 7.59417
lowerneck 7.18299 -15.5534 -14.9922
upperneck 31.7903 -35.6899 14.104
head 15.7702 -18.0056 2.54784
rclavicle 1.9133e-014 1.27222e-014
rhumerus -43.7912 -14.6402 -75.5712
rradius 26.3106
rwrist 10.9814
rhand -14.5904 4.15789
rfingers 7.12502
rthumb 11.5598 -25.5033
lclavicle 1.9133e-014 1.27222e-014
lhumerus -24.0414 3.83378 86.9683
lradius 34.0123
lwrist -3.36428
lhand -17.9437 26.9407
lfingers 7.12502
lthumb 8.3247 56.7566
rfemur -17.7927 -7.91763 26.9521
rtibia 30.3356
rfoot 1.87082 -14.0482
rtoes 16.5932
lfemur 7.95123 -0.899231 -19.0481
ltibia 29.052
lfoot 6.86265 -4.82951
ltoes -17.2621
243
root -5.46133 18.1976 11.3021 183.688 -60.9329 172.658
lowerback 10.6878 -4.76084 -6.73386
upperback 0.285958 -7.07478 2.63968
thorax -4.51861 -3.36273 7.52859
lowerneck 7.34842 -15.6498 -14.8996
upperneck 32.0252 -35.7555 13.7321
head 15.746 -18.054 2.41434
rclavicle -4.53229e-014 -2.70347e-014
rhumerus -44.5403 -15.0744 -74.9314
rradius 26.4676
rwrist 11.0144
rhand -14.4887 4.15176
rfingers 7.12502
rthumb 11.6578 -25.5039
lclavicle -4.53229e-014 -2.70347e-014
lhumerus -24.17 3.02559 87.5397
lradius 34.2834
lwrist -3.47709
lhand -17.7986 26.7672
lfingers 7.12502
lthumb 8.46468 56.5775
rfemur -18.4894 -8.01693 26.6158
rtibia 30.6304
rfoot 1.69622 -13.724
rtoes 15.396
lfemur 8.7799 -1.73782 -19.5619
ltibia 27.3016
lfoot 4.94031 -3.88372
ltoes -19.9929
244
root -5.36721 18.175 11.4091 184.258 -61.734 172.261
lowerback 10.1594 -5.05533 -7.47669
upperback 0.704138 -7.51047 3.11687
thorax -3.54699 -3.64316 8.39458
lowerneck 6.46063 -15.6949 -15.0798
upperneck 32.0467 -35.2896 13.4428
head 15.7699 -17.7559 2.32832
rclavicle 9.323e-014 3.97569e-015
rhumerus -43.3825 -14.5749 -74.7639
rradius 26.4938
rwrist 11.087
rhand -14.3613 4.14812
rfingers 7.12502
rthumb 11.7807 -25.5006
lclavicle 9.323e-014 3.97569e-015
lhumerus -23.0576 3.69745 88.1668
lradius 34.529
lwrist -3.56911
lhand -17.8651 26.7733
lfingers 7.12502
lthumb 8.40054 56.5862
rfemur -19.239 -8.03639 26.2288
rtibia 30.9046
rfoot 1.52453 -13.5251
rtoes 14.32
lfemur 9.30491 -2.54545 -20.0157
ltibia 25.7594
lfoot 3.60591 -2.5751
ltoes -21.7087
245
root -5.27229 18.1456 11.5132 185.094 -62.5127 171.628
lowerback 10.2339 -5.19113 -7.44631
upperback 0.46792 -7.69262 3.00926
thorax -3.82219 -3.70589 8.30584
lowerneck 6.65315 -15.6486 -14.9877
upperneck 32.1261 -35.2523 13.3988
head 15.7353 -17.7575 2.3398
rclavicle -1.26129e-013 1.74931e-014
rhumerus -43.8622 -14.9065 -74.4723
rradius 26.7759
rwrist 11.0121
rhand -14.0625 4.19807
rfingers 7.12502
rthumb 12.0689 -25.4339
lclavicle -1.26129e-013 1.74931e-014
lhumerus -23.0781 3.00773 88.3911
lradius 34.8321
lwrist -3.51343
lhand -17.7666 26.8553
lfingers 7.12502
lthumb 8.4956 56.6644
rfemur -20.0142 -7.8739 25.6696
rtibia 31.0937
rfoot 1.26597 -13.5615
rtoes 14.9977
lfemur 9.51711 -3.28936 -20.4972
ltibia 24.3888
lfoot 2.5313 -1.88484
ltoes -20.3278
246
root -5.17641 18.1169 11.6116 185.837 -63.1963 171.048
lowerback 10.1702 -5.2846 -7.57958
upperback 0.411333 -7.82733 2.99162
thorax -3.80578 -3.76863 8.36846
lowerneck 6.6161 -15.6939 -14.8793
upperneck 32.1135 -35.2211 13.3578
head 15.6942 -17.7234 2.32229
rclavicle -6.97734e-014 2.62396e-014
rhumerus -44.0292 -15.2247 -74.1905
rradius 27.1106
rwrist 10.8022
rhand -13.8487 4.05448
rfingers 7.12502
rthumb 12.275 -25.5653
lclavicle -6.97734e-014 2.62396e-014
lhumerus -22.8081 2.41148 88.6708
lradius 35.1055
lwrist -3.603
lhand -17.1565 26.3133
lfingers 7.12502
lthumb 9.08429 56.0976
rfemur -20.6557 -7.60125 25.113
rtibia 31.2392
rfoot 0.844475 -13.5079
rtoes 15.2459
lfemur 9.66937 -3.72812 -20.7917
ltibia 23.0255
lfoot 1.2686 -2.00832
ltoes -20.5703
247
root -5.07775 18.0947 11.7019 186.566 -63.8603 170.426
lowerback 10.2086 -5.32698 -7.76019
upperback 0.339474 -7.90763 2.94493
thorax -3.87035 -3.79766 8.4364
lowerneck 6.64024 -15.7077 -14.8391
upperneck 32.055 -35.2828 13.547
head 15.7206 -17.7311 2.37368
rclavicle 6.21202e-014 -5.08889e-014
rhumerus -44.2536 -15.7501 -73.8321
rradius 27.4302
rwrist 10.9163
rhand -13.8877 4.05704
rfingers 7.12502
rthumb 12.2374 -25.5649
lclavicle 6.21202e-014 -5.08889e-014
lhumerus -22.6552 1.54692 88.9405
lradius 35.4155
lwrist -3.43072
lhand -16.9512 25.8778
lfingers 7.12502
lthumb 9.28247 55.6534
rfemur -21.188 -7.31452 24.5479
rtibia 31.4015
rfoot 0.414144 -13.3915
rtoes 14.6264
lfemur 9.86284 -3.71107 -20.9134
ltibia 21.6165
lfoot -0.259078 -2.40857
ltoes -25.2227
248
root -4.97776 18.0679 11.7944 187.868 -64.5185 169.291
lowerback 10.0893 -5.45608 -8.19285
upperback 0.30293 -8.12114 2.87641
thorax -3.7519 -3.90125 8.60697
lowerneck 6.57355 -15.6745 -14.7325
upperneck 32.005 -35.1957 13.6633
head 15.7002 -17.6668 2.42021
rclavicle 8.06072e-014 -4.05521e-014
rhumerus -44.1993 -16.0238 -73.6849
rradius 27.6072
rwrist 11.0573
rhand -14.0693 4.23557
rfingers 7.12502
rthumb 12.0623 -25.3968
lclavicle 8.06072e-014 -4.05521e-014
lhumerus -22.3297 1.23735 89.057
lradius 35.609
lwrist -3.55716
lhand -16.9225 25.6864
lfingers 7.12502
lthumb 9.31008 55.4608
rfemur -21.8951 -6.8567 23.6758
rtibia 31.6146
rfoot -0.0878251 -13.3464
rtoes 14.4093
lfemur 9.84343 -3.4496 -21.1805
ltibia 20.3277
lfoot -1.62293 -2.55657
ltoes -26.6598
249
root -4.87383 18.0372 11.8907 189.789 -65.1687 167.546
lowerback 10.1536 -5.53298 -8.496
upperback 0.0467852 -8.27363 2.55409
thorax -4.03577 -3.93934 8.47281
lowerneck 6.61264 -15.6384 -14.4278
upperneck 32.1638 -35.2013 13.6397
head 15.7065 -17.6534 2.38583
rclavicle -1.23843e-013 6.36111e-015
rhumerus -44.6417 -16.667 -73.4902
rradius 27.7109
rwrist 11.203
rhand -14.2199 4.25946
rfingers 7.12502
rthumb 11.917 -25.3814
lclavicle -1.23843e-013 6.36111e-015
lhumerus -22.3381 0.632849 89.0433
lradius 35.809
lwrist -3.71601
lhand -16.9153 25.3844
lfingers 7.12502
lthumb 9.31704 55.1585
rfemur -22.752 -6.46849 22.4856
rtibia 31.9014
rfoot -0.75596 -13.1973
rtoes 15.3387
lfemur 9.58211 -2.95771 -21.6139
ltibia 19.2217
lfoot -2.58678 -2.98586
ltoes -27.3051
250
root -4.76511 18.0087 11.9756 191.821 -65.7818 165.618
lowerback 10.0804 -5.63452 -9.32177
upperback -0.00355094 -8.50311 2.43013
thorax -3.90455 -4.04333 8.8071
lowerneck 6.2879 -15.6017 -14.1973
upperneck 32.443 -35.0741 13.4506
head 15.7815 -17.5505 2.28029
rclavicle -1.0635e-014 -1.98785e-014
rhumerus -44.4511 -16.9172 -73.4007
rradius 27.5523
rwrist 10.9603
rhand -14.3653 4.52163
rfingers 7.12502
rthumb 11.7768 -25.1273
lclavicle -1.0635e-014 -1.98785e-014
lhumerus -22.0941 0.354067 89.1394
lradius 36.0752
lwrist -3.84856
lhand -16.8426 25.4398
lfingers 7.12502
lthumb 9.38724 55.2107
rfemur -23.4867 -6.1737 21.2972
rtibia 32.2849
rfoot -1.68405 -12.8673
rtoes 17.038
lfemur 9.26511 -2.12485 -21.9378
ltibia 18.3148
lfoot -3.4002 -4.29775
ltoes -27.336
251
root -4.65722 17.9849 12.0515 193.584 -66.4356 164.01
lowerback 9.98537 -5.6744 -9.84009
upperback -0.0813175 -8.61393 2.26596
thorax -3.86264 -4.08699 8.91814
lowerneck 6.20516 -15.5721 -13.9927
upperneck 32.5406 -35.1075 13.5867
head 15.8537 -17.5262 2.28703
rclavicle 2.56432e-014 3.97569e-015
rhumerus -44.4084 -17.5505 -73.1629
rradius 27.3091
rwrist 10.7516
rhand -14.6558 4.92885
rfingers 7.12502
rthumb 11.4968 -24.7359
lclavicle 2.56432e-014 3.97569e-015
lhumerus -21.9471 -0.370957 89.257
lradius 36.271
lwrist -3.7486
lhand -16.1619 25.4121
lfingers 7.12502
lthumb 10.044 55.1524
rfemur -24.1226 -5.64823 20.3025
rtibia 32.7184
rfoot -2.62172 -12.6427
rtoes 17.8051
lfemur 8.80845 -1.38452 -22.0739
ltibia 17.6675
lfoot -4.14041 -5.83746
ltoes -25.8867
252
root -4.55062 17.9585 12.1305 195.235 -67.1012 162.515
lowerback 10.1709 -5.6664 -9.77546
upperback -0.402691 -8.63919 1.87283
thorax -4.37586 -4.04912 8.51963
lowerneck 6.60301 -15.5008 -13.7491
upperneck 32.5389 -35.2631 13.9122
head 15.8602 -17.6064 2.39306
rclavicle -4.62174e-014 9.54166e-015
rhumerus -45.1383 -18.5412 -72.8247
rradius 27.2953
rwrist 10.7223
rhand -15.0353 5.19324
rfingers 7.12502
rthumb 11.1307 -24.4916
lclavicle -4.62174e-014 9.54166e-015
lhumerus -22.2899 -1.70614 89.2845
lradius 36.4906
lwrist -3.18639
lhand -15.2058 24.9331
lfingers 7.12502
lthumb 10.9662 54.6267
rfemur -24.7054 -5.2408 19.3644
rtibia 33.189
rfoot -3.47168 -12.094
rtoes 17.4714
lfemur 8.21559 -0.850155 -22.2256
ltibia 17.3023
lfoot -4.80159 -6.9851
ltoes -24.6862
